<mxfile host="app.diagrams.net" modified="2024-04-27T19:03:54.391Z" agent="Mozilla/5.0 (Windows NT 10.0; Win64; x64) AppleWebKit/537.36 (KHTML, like Gecko) Chrome/124.0.0.0 Safari/537.36 Edg/124.0.0.0" etag="NHip0begq9RxDd0-q2r_" version="24.3.1" type="google">
  <diagram id="23iRSUPoRavnBvh4doch" name="Page-1">
    <mxGraphModel dx="7916" dy="2604" grid="0" gridSize="10" guides="1" tooltips="1" connect="1" arrows="1" fold="1" page="0" pageScale="1" pageWidth="827" pageHeight="1169" math="0" shadow="0">
      <root>
        <mxCell id="0" />
        <mxCell id="1" parent="0" />
        <mxCell id="NTMEfr_3e5SVXF3FYlu_-295" value="" style="rounded=0;whiteSpace=wrap;html=1;" parent="1" vertex="1">
          <mxGeometry x="-216" y="703" width="600" height="121" as="geometry" />
        </mxCell>
        <mxCell id="NTMEfr_3e5SVXF3FYlu_-289" value="" style="rounded=0;whiteSpace=wrap;html=1;" parent="1" vertex="1">
          <mxGeometry x="-902" y="703" width="600" height="266" as="geometry" />
        </mxCell>
        <mxCell id="NTMEfr_3e5SVXF3FYlu_-290" value="Voltar" style="rounded=1;whiteSpace=wrap;html=1;" parent="1" vertex="1">
          <mxGeometry x="-443" y="912" width="128" height="35" as="geometry" />
        </mxCell>
        <mxCell id="NTMEfr_3e5SVXF3FYlu_-225" value="" style="rounded=0;whiteSpace=wrap;html=1;fillColor=none;dashed=1;" parent="1" vertex="1">
          <mxGeometry x="-648" y="2136" width="720" height="533" as="geometry" />
        </mxCell>
        <mxCell id="NTMEfr_3e5SVXF3FYlu_-200" value="" style="rounded=0;whiteSpace=wrap;html=1;fillColor=none;dashed=1;" parent="1" vertex="1">
          <mxGeometry x="-648" y="1584" width="720" height="533" as="geometry" />
        </mxCell>
        <mxCell id="NTMEfr_3e5SVXF3FYlu_-193" value="" style="rounded=0;whiteSpace=wrap;html=1;" parent="1" vertex="1">
          <mxGeometry x="-533" y="1920" width="487" height="146" as="geometry" />
        </mxCell>
        <mxCell id="NTMEfr_3e5SVXF3FYlu_-86" value="" style="rounded=0;whiteSpace=wrap;html=1;" parent="1" vertex="1">
          <mxGeometry x="-584.5" y="1046" width="600" height="348" as="geometry" />
        </mxCell>
        <mxCell id="NTMEfr_3e5SVXF3FYlu_-87" value="Lista de emprestimos" style="rounded=0;whiteSpace=wrap;html=1;" parent="1" vertex="1">
          <mxGeometry x="-571.5" y="1061" width="420.5" height="311" as="geometry" />
        </mxCell>
        <mxCell id="NTMEfr_3e5SVXF3FYlu_-88" value="" style="rounded=0;whiteSpace=wrap;html=1;" parent="1" vertex="1">
          <mxGeometry x="-1430" y="1067" width="638" height="177" as="geometry" />
        </mxCell>
        <mxCell id="NTMEfr_3e5SVXF3FYlu_-89" value="JanelaPrincipal" style="text;html=1;align=center;verticalAlign=middle;whiteSpace=wrap;rounded=0;" parent="1" vertex="1">
          <mxGeometry x="-1418" y="978" width="60" height="30" as="geometry" />
        </mxCell>
        <mxCell id="NTMEfr_3e5SVXF3FYlu_-90" value="Configuracoes" style="rounded=1;whiteSpace=wrap;html=1;" parent="1" vertex="1">
          <mxGeometry x="-942" y="1087" width="128" height="60" as="geometry" />
        </mxCell>
        <mxCell id="NTMEfr_3e5SVXF3FYlu_-91" value="Sair" style="rounded=1;whiteSpace=wrap;html=1;" parent="1" vertex="1">
          <mxGeometry x="-942" y="1165" width="128" height="62" as="geometry" />
        </mxCell>
        <mxCell id="NTMEfr_3e5SVXF3FYlu_-92" value="Emprestimos" style="rounded=1;whiteSpace=wrap;html=1;" parent="1" vertex="1">
          <mxGeometry x="-1405" y="1085.5" width="120" height="60" as="geometry" />
        </mxCell>
        <mxCell id="NTMEfr_3e5SVXF3FYlu_-95" value="Socios" style="rounded=1;whiteSpace=wrap;html=1;" parent="1" vertex="1">
          <mxGeometry x="-1083" y="1087" width="120" height="60" as="geometry" />
        </mxCell>
        <mxCell id="NTMEfr_3e5SVXF3FYlu_-97" value="Pesquisar" style="rounded=1;whiteSpace=wrap;html=1;" parent="1" vertex="1">
          <mxGeometry x="-1405" y="1165.5" width="120" height="60" as="geometry" />
        </mxCell>
        <mxCell id="NTMEfr_3e5SVXF3FYlu_-98" value="JanelaEmprestimos" style="text;html=1;align=center;verticalAlign=middle;whiteSpace=wrap;rounded=0;" parent="1" vertex="1">
          <mxGeometry x="-584.5" y="1016" width="110" height="30" as="geometry" />
        </mxCell>
        <mxCell id="NTMEfr_3e5SVXF3FYlu_-99" value="" style="html=1;verticalLabelPosition=bottom;labelBackgroundColor=#ffffff;verticalAlign=top;shadow=0;dashed=0;strokeWidth=2;shape=mxgraph.ios7.misc.scroll_(vertical);fillColor=#a0a0a0;" parent="1" vertex="1">
          <mxGeometry x="-164" y="1187" width="6" height="80" as="geometry" />
        </mxCell>
        <mxCell id="NTMEfr_3e5SVXF3FYlu_-201" style="edgeStyle=orthogonalEdgeStyle;rounded=0;orthogonalLoop=1;jettySize=auto;html=1;exitX=1;exitY=0.5;exitDx=0;exitDy=0;entryX=1;entryY=0.5;entryDx=0;entryDy=0;" parent="1" source="NTMEfr_3e5SVXF3FYlu_-100" target="NTMEfr_3e5SVXF3FYlu_-200" edge="1">
          <mxGeometry relative="1" as="geometry">
            <Array as="points">
              <mxPoint x="134" y="1107" />
              <mxPoint x="134" y="1850" />
            </Array>
          </mxGeometry>
        </mxCell>
        <mxCell id="NTMEfr_3e5SVXF3FYlu_-100" value="Novo Emprestimo" style="rounded=1;whiteSpace=wrap;html=1;" parent="1" vertex="1">
          <mxGeometry x="-131.5" y="1074" width="128" height="60" as="geometry" />
        </mxCell>
        <mxCell id="NTMEfr_3e5SVXF3FYlu_-101" value="Devolucao" style="rounded=1;whiteSpace=wrap;html=1;" parent="1" vertex="1">
          <mxGeometry x="-129.5" y="1146" width="128" height="60" as="geometry" />
        </mxCell>
        <mxCell id="NTMEfr_3e5SVXF3FYlu_-102" value="Voltar" style="rounded=1;whiteSpace=wrap;html=1;" parent="1" vertex="1">
          <mxGeometry x="-129.5" y="1335" width="128" height="35" as="geometry" />
        </mxCell>
        <mxCell id="NTMEfr_3e5SVXF3FYlu_-105" value="Adicionar Livro" style="rounded=1;whiteSpace=wrap;html=1;" parent="1" vertex="1">
          <mxGeometry x="-1087" y="1167" width="128" height="60" as="geometry" />
        </mxCell>
        <mxCell id="NTMEfr_3e5SVXF3FYlu_-107" value="" style="rounded=0;whiteSpace=wrap;html=1;" parent="1" vertex="1">
          <mxGeometry x="165" y="1048" width="600" height="500" as="geometry" />
        </mxCell>
        <mxCell id="NTMEfr_3e5SVXF3FYlu_-108" value="JanelaSocios" style="text;html=1;align=left;verticalAlign=middle;whiteSpace=wrap;rounded=0;" parent="1" vertex="1">
          <mxGeometry x="168" y="1021" width="110" height="30" as="geometry" />
        </mxCell>
        <mxCell id="NTMEfr_3e5SVXF3FYlu_-287" style="edgeStyle=orthogonalEdgeStyle;rounded=0;orthogonalLoop=1;jettySize=auto;html=1;exitX=1;exitY=0.5;exitDx=0;exitDy=0;entryX=0;entryY=0.5;entryDx=0;entryDy=0;" parent="1" source="NTMEfr_3e5SVXF3FYlu_-109" target="NTMEfr_3e5SVXF3FYlu_-261" edge="1">
          <mxGeometry relative="1" as="geometry" />
        </mxCell>
        <mxCell id="NTMEfr_3e5SVXF3FYlu_-109" value="Adicionar Socio" style="rounded=1;whiteSpace=wrap;html=1;" parent="1" vertex="1">
          <mxGeometry x="618" y="1069" width="128" height="60" as="geometry" />
        </mxCell>
        <mxCell id="NTMEfr_3e5SVXF3FYlu_-110" value="Voltar" style="rounded=1;whiteSpace=wrap;html=1;" parent="1" vertex="1">
          <mxGeometry x="621" y="1499" width="128" height="35" as="geometry" />
        </mxCell>
        <mxCell id="PDVYzoY3RleATE-HyURN-15" style="edgeStyle=orthogonalEdgeStyle;rounded=0;orthogonalLoop=1;jettySize=auto;html=1;exitX=0.5;exitY=0;exitDx=0;exitDy=0;entryX=0.5;entryY=0;entryDx=0;entryDy=0;" edge="1" parent="1" source="NTMEfr_3e5SVXF3FYlu_-115" target="PDVYzoY3RleATE-HyURN-8">
          <mxGeometry relative="1" as="geometry">
            <Array as="points">
              <mxPoint x="-377" y="593" />
              <mxPoint x="-1301" y="593" />
            </Array>
          </mxGeometry>
        </mxCell>
        <mxCell id="NTMEfr_3e5SVXF3FYlu_-115" value="Anular Reserva" style="rounded=1;whiteSpace=wrap;html=1;" parent="1" vertex="1">
          <mxGeometry x="-441" y="727" width="128" height="60" as="geometry" />
        </mxCell>
        <mxCell id="NTMEfr_3e5SVXF3FYlu_-116" value="" style="rounded=0;whiteSpace=wrap;html=1;" parent="1" vertex="1">
          <mxGeometry x="981" y="1705" width="600" height="874" as="geometry" />
        </mxCell>
        <mxCell id="NTMEfr_3e5SVXF3FYlu_-117" value="JanelaEstisticas" style="text;html=1;align=left;verticalAlign=middle;whiteSpace=wrap;rounded=0;" parent="1" vertex="1">
          <mxGeometry x="984" y="1678" width="110" height="30" as="geometry" />
        </mxCell>
        <mxCell id="PDVYzoY3RleATE-HyURN-29" style="edgeStyle=orthogonalEdgeStyle;rounded=0;orthogonalLoop=1;jettySize=auto;html=1;exitX=0.5;exitY=1;exitDx=0;exitDy=0;" edge="1" parent="1" source="NTMEfr_3e5SVXF3FYlu_-118" target="NTMEfr_3e5SVXF3FYlu_-88">
          <mxGeometry relative="1" as="geometry">
            <Array as="points">
              <mxPoint x="1496" y="2817" />
              <mxPoint x="-1111" y="2817" />
            </Array>
          </mxGeometry>
        </mxCell>
        <mxCell id="NTMEfr_3e5SVXF3FYlu_-118" value="Voltar" style="rounded=1;whiteSpace=wrap;html=1;" parent="1" vertex="1">
          <mxGeometry x="1432" y="2521" width="128" height="35" as="geometry" />
        </mxCell>
        <mxCell id="NTMEfr_3e5SVXF3FYlu_-119" value="" style="rounded=0;whiteSpace=wrap;html=1;" parent="1" vertex="1">
          <mxGeometry x="1053" y="1736" width="359" height="26" as="geometry" />
        </mxCell>
        <mxCell id="NTMEfr_3e5SVXF3FYlu_-120" value="Livro&amp;nbsp;" style="text;html=1;align=right;verticalAlign=middle;whiteSpace=wrap;rounded=0;" parent="1" vertex="1">
          <mxGeometry x="988" y="1734" width="60" height="30" as="geometry" />
        </mxCell>
        <mxCell id="NTMEfr_3e5SVXF3FYlu_-121" value="Pesquisar" style="rounded=1;whiteSpace=wrap;html=1;" parent="1" vertex="1">
          <mxGeometry x="1432" y="1731.5" width="128" height="35" as="geometry" />
        </mxCell>
        <mxCell id="NTMEfr_3e5SVXF3FYlu_-122" value="" style="rounded=0;whiteSpace=wrap;html=1;" parent="1" vertex="1">
          <mxGeometry x="1006.5" y="1787" width="549" height="127" as="geometry" />
        </mxCell>
        <mxCell id="NTMEfr_3e5SVXF3FYlu_-123" value="" style="rounded=0;whiteSpace=wrap;html=1;" parent="1" vertex="1">
          <mxGeometry x="1056" y="1937.5" width="359" height="26" as="geometry" />
        </mxCell>
        <mxCell id="NTMEfr_3e5SVXF3FYlu_-124" value="Utente" style="text;html=1;align=right;verticalAlign=middle;whiteSpace=wrap;rounded=0;" parent="1" vertex="1">
          <mxGeometry x="991" y="1935.5" width="60" height="30" as="geometry" />
        </mxCell>
        <mxCell id="NTMEfr_3e5SVXF3FYlu_-125" value="Pesquisar" style="rounded=1;whiteSpace=wrap;html=1;" parent="1" vertex="1">
          <mxGeometry x="1435" y="1933" width="128" height="35" as="geometry" />
        </mxCell>
        <mxCell id="NTMEfr_3e5SVXF3FYlu_-126" value="" style="rounded=0;whiteSpace=wrap;html=1;" parent="1" vertex="1">
          <mxGeometry x="1009.5" y="1989.5" width="549" height="126" as="geometry" />
        </mxCell>
        <mxCell id="NTMEfr_3e5SVXF3FYlu_-127" value="Top 10" style="rounded=0;whiteSpace=wrap;html=1;rotation=0;" parent="1" vertex="1">
          <mxGeometry x="1006.5" y="2248" width="549" height="250" as="geometry" />
        </mxCell>
        <mxCell id="NTMEfr_3e5SVXF3FYlu_-128" value="Autor" style="rounded=1;whiteSpace=wrap;html=1;" parent="1" vertex="1">
          <mxGeometry x="1009.5" y="2209" width="130.5" height="24" as="geometry" />
        </mxCell>
        <mxCell id="NTMEfr_3e5SVXF3FYlu_-129" value="Genero" style="rounded=1;whiteSpace=wrap;html=1;" parent="1" vertex="1">
          <mxGeometry x="1154" y="2209" width="130.5" height="24" as="geometry" />
        </mxCell>
        <mxCell id="NTMEfr_3e5SVXF3FYlu_-130" value="subgenero" style="rounded=1;whiteSpace=wrap;html=1;" parent="1" vertex="1">
          <mxGeometry x="1316" y="2207" width="130.5" height="24" as="geometry" />
        </mxCell>
        <mxCell id="NTMEfr_3e5SVXF3FYlu_-131" value="Pesquisar" style="rounded=1;whiteSpace=wrap;html=1;" parent="1" vertex="1">
          <mxGeometry x="1469" y="2207" width="84" height="24" as="geometry" />
        </mxCell>
        <mxCell id="NTMEfr_3e5SVXF3FYlu_-132" value="" style="rounded=0;whiteSpace=wrap;html=1;" parent="1" vertex="1">
          <mxGeometry x="182" y="1065" width="416" height="469" as="geometry" />
        </mxCell>
        <mxCell id="NTMEfr_3e5SVXF3FYlu_-133" value="Notificar Socios com divida" style="rounded=1;whiteSpace=wrap;html=1;" parent="1" vertex="1">
          <mxGeometry x="621" y="1420" width="128" height="60" as="geometry" />
        </mxCell>
        <mxCell id="NTMEfr_3e5SVXF3FYlu_-134" value="" style="shape=image;html=1;verticalAlign=top;verticalLabelPosition=bottom;labelBackgroundColor=#ffffff;imageAspect=0;aspect=fixed;image=https://cdn2.iconfinder.com/data/icons/boxicons-regular-vol-1/24/bx-check-square-128.png" parent="1" vertex="1">
          <mxGeometry x="621" y="1396" width="19" height="19" as="geometry" />
        </mxCell>
        <mxCell id="NTMEfr_3e5SVXF3FYlu_-135" value="Filtrar por devedores" style="text;html=1;align=center;verticalAlign=middle;whiteSpace=wrap;rounded=0;" parent="1" vertex="1">
          <mxGeometry x="636" y="1390" width="129" height="30" as="geometry" />
        </mxCell>
        <mxCell id="NTMEfr_3e5SVXF3FYlu_-136" value="Pagamentos Anuidades" style="rounded=1;whiteSpace=wrap;html=1;" parent="1" vertex="1">
          <mxGeometry x="-174" y="731" width="128" height="60" as="geometry" />
        </mxCell>
        <mxCell id="NTMEfr_3e5SVXF3FYlu_-145" value="Lista de reservas" style="rounded=0;whiteSpace=wrap;html=1;" parent="1" vertex="1">
          <mxGeometry x="-883" y="727" width="420.5" height="220" as="geometry" />
        </mxCell>
        <mxCell id="NTMEfr_3e5SVXF3FYlu_-161" value="" style="rounded=0;whiteSpace=wrap;html=1;" parent="1" vertex="1">
          <mxGeometry x="-1392" y="1370" width="600" height="279" as="geometry" />
        </mxCell>
        <mxCell id="NTMEfr_3e5SVXF3FYlu_-162" value="JanelaDefinicoes" style="text;html=1;align=center;verticalAlign=middle;whiteSpace=wrap;rounded=0;" parent="1" vertex="1">
          <mxGeometry x="-1375" y="1340" width="60" height="30" as="geometry" />
        </mxCell>
        <mxCell id="NTMEfr_3e5SVXF3FYlu_-166" value="" style="swimlane;fontStyle=0;childLayout=stackLayout;horizontal=1;startSize=30;horizontalStack=0;resizeParent=1;resizeParentMax=0;resizeLast=0;collapsible=1;marginBottom=0;whiteSpace=wrap;html=1;" parent="1" vertex="1">
          <mxGeometry x="-1381" y="1390" width="408" height="150" as="geometry" />
        </mxCell>
        <mxCell id="NTMEfr_3e5SVXF3FYlu_-167" value="Nr de dias de emprestimo" style="text;strokeColor=none;fillColor=none;align=left;verticalAlign=middle;spacingLeft=4;spacingRight=4;overflow=hidden;points=[[0,0.5],[1,0.5]];portConstraint=eastwest;rotatable=0;whiteSpace=wrap;html=1;" parent="NTMEfr_3e5SVXF3FYlu_-166" vertex="1">
          <mxGeometry y="30" width="408" height="30" as="geometry" />
        </mxCell>
        <mxCell id="NTMEfr_3e5SVXF3FYlu_-168" value="valor multa por dia" style="text;strokeColor=none;fillColor=none;align=left;verticalAlign=middle;spacingLeft=4;spacingRight=4;overflow=hidden;points=[[0,0.5],[1,0.5]];portConstraint=eastwest;rotatable=0;whiteSpace=wrap;html=1;" parent="NTMEfr_3e5SVXF3FYlu_-166" vertex="1">
          <mxGeometry y="60" width="408" height="30" as="geometry" />
        </mxCell>
        <mxCell id="NTMEfr_3e5SVXF3FYlu_-169" value="nr maximo de livros por socio" style="text;strokeColor=none;fillColor=none;align=left;verticalAlign=middle;spacingLeft=4;spacingRight=4;overflow=hidden;points=[[0,0.5],[1,0.5]];portConstraint=eastwest;rotatable=0;whiteSpace=wrap;html=1;" parent="NTMEfr_3e5SVXF3FYlu_-166" vertex="1">
          <mxGeometry y="90" width="408" height="30" as="geometry" />
        </mxCell>
        <mxCell id="NTMEfr_3e5SVXF3FYlu_-174" value="Valor da anuidade" style="text;strokeColor=none;fillColor=none;align=left;verticalAlign=middle;spacingLeft=4;spacingRight=4;overflow=hidden;points=[[0,0.5],[1,0.5]];portConstraint=eastwest;rotatable=0;whiteSpace=wrap;html=1;" parent="NTMEfr_3e5SVXF3FYlu_-166" vertex="1">
          <mxGeometry y="120" width="408" height="30" as="geometry" />
        </mxCell>
        <mxCell id="NTMEfr_3e5SVXF3FYlu_-175" value="Entity" style="whiteSpace=wrap;html=1;align=center;" parent="1" vertex="1">
          <mxGeometry x="-928" y="1402" width="100" height="40" as="geometry" />
        </mxCell>
        <mxCell id="NTMEfr_3e5SVXF3FYlu_-176" value="Entity" style="whiteSpace=wrap;html=1;align=center;" parent="1" vertex="1">
          <mxGeometry x="-928" y="1439" width="100" height="40" as="geometry" />
        </mxCell>
        <mxCell id="NTMEfr_3e5SVXF3FYlu_-177" value="Entity" style="whiteSpace=wrap;html=1;align=center;" parent="1" vertex="1">
          <mxGeometry x="-928" y="1475" width="100" height="40" as="geometry" />
        </mxCell>
        <mxCell id="NTMEfr_3e5SVXF3FYlu_-178" value="Entity" style="whiteSpace=wrap;html=1;align=center;" parent="1" vertex="1">
          <mxGeometry x="-928" y="1512" width="100" height="40" as="geometry" />
        </mxCell>
        <mxCell id="NTMEfr_3e5SVXF3FYlu_-179" value="Voltar" style="rounded=1;whiteSpace=wrap;html=1;" parent="1" vertex="1">
          <mxGeometry x="-949" y="1602.5" width="128" height="35" as="geometry" />
        </mxCell>
        <mxCell id="NTMEfr_3e5SVXF3FYlu_-181" value="Guardar" style="rounded=1;whiteSpace=wrap;html=1;" parent="1" vertex="1">
          <mxGeometry x="-1087" y="1602.5" width="128" height="35" as="geometry" />
        </mxCell>
        <mxCell id="NTMEfr_3e5SVXF3FYlu_-182" value="" style="rounded=0;whiteSpace=wrap;html=1;" parent="1" vertex="1">
          <mxGeometry x="-578" y="1668" width="593.5" height="176" as="geometry" />
        </mxCell>
        <mxCell id="NTMEfr_3e5SVXF3FYlu_-183" value="JanelaNovoEmprestimo" style="text;html=1;align=center;verticalAlign=middle;whiteSpace=wrap;rounded=0;" parent="1" vertex="1">
          <mxGeometry x="-571.5" y="1638" width="110" height="30" as="geometry" />
        </mxCell>
        <mxCell id="NTMEfr_3e5SVXF3FYlu_-184" value="Livro" style="text;html=1;align=right;verticalAlign=middle;whiteSpace=wrap;rounded=0;" parent="1" vertex="1">
          <mxGeometry x="-565" y="1690" width="60" height="30" as="geometry" />
        </mxCell>
        <mxCell id="NTMEfr_3e5SVXF3FYlu_-186" value="" style="strokeWidth=1;shadow=0;dashed=0;align=center;html=1;shape=mxgraph.mockup.forms.comboBox;strokeColor=#999999;fillColor=#ddeeff;align=left;fillColor2=#aaddff;mainText=;fontColor=#666666;fontSize=17;spacingLeft=3;" parent="1" vertex="1">
          <mxGeometry x="-490.5" y="1690" width="479" height="30" as="geometry" />
        </mxCell>
        <mxCell id="NTMEfr_3e5SVXF3FYlu_-187" value="Nr de Socio" style="text;html=1;align=right;verticalAlign=middle;whiteSpace=wrap;rounded=0;" parent="1" vertex="1">
          <mxGeometry x="-565" y="1730" width="102" height="30" as="geometry" />
        </mxCell>
        <mxCell id="NTMEfr_3e5SVXF3FYlu_-188" value="" style="strokeWidth=1;shadow=0;dashed=0;align=center;html=1;shape=mxgraph.mockup.forms.comboBox;strokeColor=#999999;fillColor=#ddeeff;align=left;fillColor2=#aaddff;mainText=;fontColor=#666666;fontSize=17;spacingLeft=3;" parent="1" vertex="1">
          <mxGeometry x="-453" y="1730" width="441.5" height="30" as="geometry" />
        </mxCell>
        <mxCell id="NTMEfr_3e5SVXF3FYlu_-189" value="Não" style="rounded=1;whiteSpace=wrap;html=1;" parent="1" vertex="1">
          <mxGeometry x="-279" y="2003" width="128" height="35" as="geometry" />
        </mxCell>
        <mxCell id="NTMEfr_3e5SVXF3FYlu_-190" value="Sim" style="rounded=1;whiteSpace=wrap;html=1;" parent="1" vertex="1">
          <mxGeometry x="-417" y="2003" width="128" height="35" as="geometry" />
        </mxCell>
        <mxCell id="NTMEfr_3e5SVXF3FYlu_-192" value="&lt;h1 class=&quot;indIKd GW0XC cS4Vcb-pGL6qe-fwJd0c&quot; style=&quot;font-family: &amp;quot;Google Sans&amp;quot;, arial, sans-serif; font-size: 18px; font-weight: 400; margin: 0px; padding: 0px; color: var(--uv-styles-color-text-emphasis); line-height: 24px; flex: 1 1 auto; overflow: hidden; text-decoration-line: none; text-overflow: ellipsis; display: -webkit-box; -webkit-box-orient: vertical; -webkit-line-clamp: 2;&quot;&gt;&amp;nbsp;JOptionPane :&lt;/h1&gt;" style="text;html=1;align=center;verticalAlign=middle;whiteSpace=wrap;rounded=0;" parent="1" vertex="1">
          <mxGeometry x="-561" y="1878" width="183.5" height="45" as="geometry" />
        </mxCell>
        <mxCell id="NTMEfr_3e5SVXF3FYlu_-195" value="&lt;h1 class=&quot;indIKd GW0XC cS4Vcb-pGL6qe-fwJd0c&quot; style=&quot;font-family: &amp;quot;Google Sans&amp;quot;, arial, sans-serif; font-size: 18px; font-weight: 400; margin: 0px; padding: 0px; color: var(--uv-styles-color-text-emphasis); line-height: 24px; flex: 1 1 auto; overflow: hidden; text-decoration-line: none; text-overflow: ellipsis; display: -webkit-box; -webkit-box-orient: vertical; -webkit-line-clamp: 2;&quot;&gt;&amp;nbsp;O livro ja se encontra emprestado, pretende reservar ?&lt;/h1&gt;" style="text;html=1;align=center;verticalAlign=middle;whiteSpace=wrap;rounded=0;" parent="1" vertex="1">
          <mxGeometry x="-524" y="1940" width="446" height="33" as="geometry" />
        </mxCell>
        <mxCell id="NTMEfr_3e5SVXF3FYlu_-196" value="Guardar" style="rounded=1;whiteSpace=wrap;html=1;" parent="1" vertex="1">
          <mxGeometry x="-279.5" y="1785" width="128" height="35" as="geometry" />
        </mxCell>
        <mxCell id="NTMEfr_3e5SVXF3FYlu_-197" value="Voltar" style="rounded=1;whiteSpace=wrap;html=1;" parent="1" vertex="1">
          <mxGeometry x="-141.5" y="1785" width="128" height="35" as="geometry" />
        </mxCell>
        <mxCell id="NTMEfr_3e5SVXF3FYlu_-210" value="" style="rounded=0;whiteSpace=wrap;html=1;" parent="1" vertex="1">
          <mxGeometry x="-572.5" y="2224" width="593.5" height="134" as="geometry" />
        </mxCell>
        <mxCell id="NTMEfr_3e5SVXF3FYlu_-211" value="JanelaDevolverEmprestimo" style="text;html=1;align=center;verticalAlign=middle;whiteSpace=wrap;rounded=0;" parent="1" vertex="1">
          <mxGeometry x="-551" y="2194" width="110" height="30" as="geometry" />
        </mxCell>
        <mxCell id="NTMEfr_3e5SVXF3FYlu_-212" value="Cod Emprestimo" style="text;html=1;align=right;verticalAlign=middle;whiteSpace=wrap;rounded=0;" parent="1" vertex="1">
          <mxGeometry x="-559.5" y="2246" width="100.5" height="30" as="geometry" />
        </mxCell>
        <mxCell id="NTMEfr_3e5SVXF3FYlu_-213" value="" style="strokeWidth=1;shadow=0;dashed=0;align=center;html=1;shape=mxgraph.mockup.forms.comboBox;strokeColor=#999999;fillColor=#ddeeff;align=left;fillColor2=#aaddff;mainText=;fontColor=#666666;fontSize=17;spacingLeft=3;" parent="1" vertex="1">
          <mxGeometry x="-452" y="2246" width="446" height="30" as="geometry" />
        </mxCell>
        <mxCell id="NTMEfr_3e5SVXF3FYlu_-216" value="Submeter" style="rounded=1;whiteSpace=wrap;html=1;" parent="1" vertex="1">
          <mxGeometry x="-275" y="2304" width="128" height="35" as="geometry" />
        </mxCell>
        <mxCell id="NTMEfr_3e5SVXF3FYlu_-217" value="Voltar" style="rounded=1;whiteSpace=wrap;html=1;" parent="1" vertex="1">
          <mxGeometry x="-137" y="2304" width="128" height="35" as="geometry" />
        </mxCell>
        <mxCell id="NTMEfr_3e5SVXF3FYlu_-220" value="" style="rounded=0;whiteSpace=wrap;html=1;" parent="1" vertex="1">
          <mxGeometry x="-561" y="2435" width="539" height="146" as="geometry" />
        </mxCell>
        <mxCell id="NTMEfr_3e5SVXF3FYlu_-221" value="Não" style="rounded=1;whiteSpace=wrap;html=1;" parent="1" vertex="1">
          <mxGeometry x="-279.5" y="2532" width="128" height="35" as="geometry" />
        </mxCell>
        <mxCell id="NTMEfr_3e5SVXF3FYlu_-222" value="Sim" style="rounded=1;whiteSpace=wrap;html=1;" parent="1" vertex="1">
          <mxGeometry x="-426.5" y="2532" width="128" height="35" as="geometry" />
        </mxCell>
        <mxCell id="NTMEfr_3e5SVXF3FYlu_-223" value="&lt;h1 class=&quot;indIKd GW0XC cS4Vcb-pGL6qe-fwJd0c&quot; style=&quot;font-family: &amp;quot;Google Sans&amp;quot;, arial, sans-serif; font-size: 18px; font-weight: 400; margin: 0px; padding: 0px; color: var(--uv-styles-color-text-emphasis); line-height: 24px; flex: 1 1 auto; overflow: hidden; text-decoration-line: none; text-overflow: ellipsis; display: -webkit-box; -webkit-box-orient: vertical; -webkit-line-clamp: 2;&quot;&gt;&amp;nbsp;JOptionPane :&lt;/h1&gt;" style="text;html=1;align=center;verticalAlign=middle;whiteSpace=wrap;rounded=0;" parent="1" vertex="1">
          <mxGeometry x="-555" y="2393" width="183.5" height="45" as="geometry" />
        </mxCell>
        <mxCell id="NTMEfr_3e5SVXF3FYlu_-224" value="&lt;h1 class=&quot;indIKd GW0XC cS4Vcb-pGL6qe-fwJd0c&quot; style=&quot;font-family: &amp;quot;Google Sans&amp;quot;, arial, sans-serif; font-weight: 400; margin: 0px; padding: 0px; color: var(--uv-styles-color-text-emphasis); line-height: 24px; flex: 1 1 auto; overflow: hidden; text-decoration-line: none; text-overflow: ellipsis; display: -webkit-box; -webkit-box-orient: vertical; -webkit-line-clamp: 2; font-size: 14px;&quot;&gt;&lt;font style=&quot;font-size: 14px;&quot;&gt;O sócio X entregou o livro com X dias de atraso.&lt;/font&gt;&lt;/h1&gt;&lt;div style=&quot;font-size: 14px;&quot;&gt;&lt;div&gt;&lt;font style=&quot;font-size: 14px;&quot;&gt;Valor da multa Y €&lt;/font&gt;&lt;/div&gt;&lt;/div&gt;&lt;div style=&quot;font-size: 14px;&quot;&gt;&lt;span style=&quot;background-color: initial; color: var(--uv-styles-color-text-emphasis); font-family: &amp;quot;Google Sans&amp;quot;, arial, sans-serif;&quot;&gt;&lt;font style=&quot;font-size: 14px;&quot;&gt;Pretende efetuar o pagamento?&lt;/font&gt;&lt;/span&gt;&lt;br&gt;&lt;/div&gt;" style="text;html=1;align=center;verticalAlign=middle;whiteSpace=wrap;rounded=0;" parent="1" vertex="1">
          <mxGeometry x="-551" y="2459" width="522" height="33" as="geometry" />
        </mxCell>
        <mxCell id="PDVYzoY3RleATE-HyURN-27" style="edgeStyle=orthogonalEdgeStyle;rounded=0;orthogonalLoop=1;jettySize=auto;html=1;exitX=0.5;exitY=1;exitDx=0;exitDy=0;entryX=0.5;entryY=1;entryDx=0;entryDy=0;" edge="1" parent="1" source="NTMEfr_3e5SVXF3FYlu_-228" target="PDVYzoY3RleATE-HyURN-16">
          <mxGeometry relative="1" as="geometry" />
        </mxCell>
        <mxCell id="NTMEfr_3e5SVXF3FYlu_-228" value="Pagamentos Multas" style="rounded=1;whiteSpace=wrap;html=1;" parent="1" vertex="1">
          <mxGeometry x="21" y="731" width="128" height="60" as="geometry" />
        </mxCell>
        <mxCell id="NTMEfr_3e5SVXF3FYlu_-229" style="edgeStyle=orthogonalEdgeStyle;rounded=0;orthogonalLoop=1;jettySize=auto;html=1;exitX=1;exitY=0.5;exitDx=0;exitDy=0;entryX=1.003;entryY=0.074;entryDx=0;entryDy=0;entryPerimeter=0;" parent="1" source="NTMEfr_3e5SVXF3FYlu_-101" target="NTMEfr_3e5SVXF3FYlu_-225" edge="1">
          <mxGeometry relative="1" as="geometry">
            <Array as="points">
              <mxPoint x="153" y="1179" />
              <mxPoint x="153" y="2175" />
            </Array>
          </mxGeometry>
        </mxCell>
        <mxCell id="NTMEfr_3e5SVXF3FYlu_-260" style="edgeStyle=orthogonalEdgeStyle;rounded=0;orthogonalLoop=1;jettySize=auto;html=1;exitX=1;exitY=0.5;exitDx=0;exitDy=0;entryX=0.5;entryY=1;entryDx=0;entryDy=0;" parent="1" source="NTMEfr_3e5SVXF3FYlu_-230" target="NTMEfr_3e5SVXF3FYlu_-105" edge="1">
          <mxGeometry relative="1" as="geometry" />
        </mxCell>
        <mxCell id="NTMEfr_3e5SVXF3FYlu_-230" value="" style="rounded=0;whiteSpace=wrap;html=1;" parent="1" vertex="1">
          <mxGeometry x="-2290" y="1041.5" width="593.5" height="484.5" as="geometry" />
        </mxCell>
        <mxCell id="NTMEfr_3e5SVXF3FYlu_-231" value="JanelaNovoLivro" style="text;html=1;align=center;verticalAlign=middle;whiteSpace=wrap;rounded=0;" parent="1" vertex="1">
          <mxGeometry x="-2283.5" y="1016.5" width="110" height="30" as="geometry" />
        </mxCell>
        <mxCell id="NTMEfr_3e5SVXF3FYlu_-232" value="Titulo" style="text;html=1;align=right;verticalAlign=middle;whiteSpace=wrap;rounded=0;" parent="1" vertex="1">
          <mxGeometry x="-2233.5" y="1068.5" width="60" height="30" as="geometry" />
        </mxCell>
        <mxCell id="NTMEfr_3e5SVXF3FYlu_-233" value="" style="strokeWidth=1;shadow=0;dashed=0;align=center;html=1;shape=mxgraph.mockup.forms.comboBox;strokeColor=#999999;fillColor=#ddeeff;align=left;fillColor2=#aaddff;mainText=;fontColor=#666666;fontSize=17;spacingLeft=3;" parent="1" vertex="1">
          <mxGeometry x="-2167" y="1068.5" width="443.5" height="30" as="geometry" />
        </mxCell>
        <mxCell id="NTMEfr_3e5SVXF3FYlu_-236" value="Guardar" style="rounded=1;whiteSpace=wrap;html=1;" parent="1" vertex="1">
          <mxGeometry x="-1997" y="1468" width="128" height="35" as="geometry" />
        </mxCell>
        <mxCell id="NTMEfr_3e5SVXF3FYlu_-237" value="Voltar" style="rounded=1;whiteSpace=wrap;html=1;" parent="1" vertex="1">
          <mxGeometry x="-1859" y="1468" width="128" height="35" as="geometry" />
        </mxCell>
        <mxCell id="NTMEfr_3e5SVXF3FYlu_-238" value="Editora" style="text;html=1;align=right;verticalAlign=middle;whiteSpace=wrap;rounded=0;" parent="1" vertex="1">
          <mxGeometry x="-2233.5" y="1113" width="60" height="30" as="geometry" />
        </mxCell>
        <mxCell id="NTMEfr_3e5SVXF3FYlu_-239" value="" style="strokeWidth=1;shadow=0;dashed=0;align=center;html=1;shape=mxgraph.mockup.forms.comboBox;strokeColor=#999999;fillColor=#ddeeff;align=left;fillColor2=#aaddff;mainText=;fontColor=#666666;fontSize=17;spacingLeft=3;" parent="1" vertex="1">
          <mxGeometry x="-2167" y="1113" width="443.5" height="30" as="geometry" />
        </mxCell>
        <mxCell id="NTMEfr_3e5SVXF3FYlu_-240" value="Quantidade" style="text;html=1;align=right;verticalAlign=middle;whiteSpace=wrap;rounded=0;" parent="1" vertex="1">
          <mxGeometry x="-1926" y="1301" width="60" height="30" as="geometry" />
        </mxCell>
        <mxCell id="NTMEfr_3e5SVXF3FYlu_-241" value="" style="strokeWidth=1;shadow=0;dashed=0;align=center;html=1;shape=mxgraph.mockup.forms.comboBox;strokeColor=#999999;fillColor=#ddeeff;align=left;fillColor2=#aaddff;mainText=;fontColor=#666666;fontSize=17;spacingLeft=3;" parent="1" vertex="1">
          <mxGeometry x="-1859.5" y="1301" width="128.5" height="30" as="geometry" />
        </mxCell>
        <mxCell id="NTMEfr_3e5SVXF3FYlu_-242" value="Autor" style="text;html=1;align=right;verticalAlign=middle;whiteSpace=wrap;rounded=0;" parent="1" vertex="1">
          <mxGeometry x="-2235.5" y="1161" width="60" height="30" as="geometry" />
        </mxCell>
        <mxCell id="NTMEfr_3e5SVXF3FYlu_-243" value="" style="strokeWidth=1;shadow=0;dashed=0;align=center;html=1;shape=mxgraph.mockup.forms.comboBox;strokeColor=#999999;fillColor=#ddeeff;align=left;fillColor2=#aaddff;mainText=;fontColor=#666666;fontSize=17;spacingLeft=3;" parent="1" vertex="1">
          <mxGeometry x="-2169" y="1161" width="443.5" height="30" as="geometry" />
        </mxCell>
        <mxCell id="NTMEfr_3e5SVXF3FYlu_-246" value="Género" style="text;html=1;align=right;verticalAlign=middle;whiteSpace=wrap;rounded=0;" parent="1" vertex="1">
          <mxGeometry x="-2235.5" y="1209" width="60" height="30" as="geometry" />
        </mxCell>
        <mxCell id="NTMEfr_3e5SVXF3FYlu_-247" value="" style="strokeWidth=1;shadow=0;dashed=0;align=center;html=1;shape=mxgraph.mockup.forms.comboBox;strokeColor=#999999;fillColor=#ddeeff;align=left;fillColor2=#aaddff;mainText=;fontColor=#666666;fontSize=17;spacingLeft=3;" parent="1" vertex="1">
          <mxGeometry x="-2169" y="1209" width="443.5" height="30" as="geometry" />
        </mxCell>
        <mxCell id="NTMEfr_3e5SVXF3FYlu_-248" value="Sub-Género" style="text;html=1;align=right;verticalAlign=middle;whiteSpace=wrap;rounded=0;" parent="1" vertex="1">
          <mxGeometry x="-2263" y="1254" width="87.5" height="30" as="geometry" />
        </mxCell>
        <mxCell id="NTMEfr_3e5SVXF3FYlu_-249" value="" style="strokeWidth=1;shadow=0;dashed=0;align=center;html=1;shape=mxgraph.mockup.forms.comboBox;strokeColor=#999999;fillColor=#ddeeff;align=left;fillColor2=#aaddff;mainText=;fontColor=#666666;fontSize=17;spacingLeft=3;" parent="1" vertex="1">
          <mxGeometry x="-2169" y="1254" width="443.5" height="30" as="geometry" />
        </mxCell>
        <mxCell id="NTMEfr_3e5SVXF3FYlu_-250" value="Nr Edicao" style="text;html=1;align=right;verticalAlign=middle;whiteSpace=wrap;rounded=0;" parent="1" vertex="1">
          <mxGeometry x="-1930" y="1353" width="60" height="30" as="geometry" />
        </mxCell>
        <mxCell id="NTMEfr_3e5SVXF3FYlu_-251" value="" style="strokeWidth=1;shadow=0;dashed=0;align=center;html=1;shape=mxgraph.mockup.forms.comboBox;strokeColor=#999999;fillColor=#ddeeff;align=left;fillColor2=#aaddff;mainText=;fontColor=#666666;fontSize=17;spacingLeft=3;" parent="1" vertex="1">
          <mxGeometry x="-1863.5" y="1353" width="132.5" height="30" as="geometry" />
        </mxCell>
        <mxCell id="NTMEfr_3e5SVXF3FYlu_-252" value="Ano" style="text;html=1;align=right;verticalAlign=middle;whiteSpace=wrap;rounded=0;" parent="1" vertex="1">
          <mxGeometry x="-2233.5" y="1304" width="60" height="30" as="geometry" />
        </mxCell>
        <mxCell id="NTMEfr_3e5SVXF3FYlu_-253" value="" style="strokeWidth=1;shadow=0;dashed=0;align=center;html=1;shape=mxgraph.mockup.forms.comboBox;strokeColor=#999999;fillColor=#ddeeff;align=left;fillColor2=#aaddff;mainText=;fontColor=#666666;fontSize=17;spacingLeft=3;" parent="1" vertex="1">
          <mxGeometry x="-2167" y="1304" width="144" height="30" as="geometry" />
        </mxCell>
        <mxCell id="NTMEfr_3e5SVXF3FYlu_-254" value="ISBN" style="text;html=1;align=right;verticalAlign=middle;whiteSpace=wrap;rounded=0;" parent="1" vertex="1">
          <mxGeometry x="-2233.5" y="1353" width="60" height="30" as="geometry" />
        </mxCell>
        <mxCell id="NTMEfr_3e5SVXF3FYlu_-255" value="" style="strokeWidth=1;shadow=0;dashed=0;align=center;html=1;shape=mxgraph.mockup.forms.comboBox;strokeColor=#999999;fillColor=#ddeeff;align=left;fillColor2=#aaddff;mainText=;fontColor=#666666;fontSize=17;spacingLeft=3;" parent="1" vertex="1">
          <mxGeometry x="-2167" y="1353" width="145" height="30" as="geometry" />
        </mxCell>
        <mxCell id="NTMEfr_3e5SVXF3FYlu_-256" value="Prateleira" style="text;html=1;align=right;verticalAlign=middle;whiteSpace=wrap;rounded=0;" parent="1" vertex="1">
          <mxGeometry x="-1930" y="1402" width="60" height="30" as="geometry" />
        </mxCell>
        <mxCell id="NTMEfr_3e5SVXF3FYlu_-257" value="" style="strokeWidth=1;shadow=0;dashed=0;align=center;html=1;shape=mxgraph.mockup.forms.comboBox;strokeColor=#999999;fillColor=#ddeeff;align=left;fillColor2=#aaddff;mainText=;fontColor=#666666;fontSize=17;spacingLeft=3;" parent="1" vertex="1">
          <mxGeometry x="-1863.5" y="1402" width="132.5" height="30" as="geometry" />
        </mxCell>
        <mxCell id="NTMEfr_3e5SVXF3FYlu_-258" value="Estante" style="text;html=1;align=right;verticalAlign=middle;whiteSpace=wrap;rounded=0;" parent="1" vertex="1">
          <mxGeometry x="-2233.5" y="1402" width="60" height="30" as="geometry" />
        </mxCell>
        <mxCell id="NTMEfr_3e5SVXF3FYlu_-259" value="" style="strokeWidth=1;shadow=0;dashed=0;align=center;html=1;shape=mxgraph.mockup.forms.comboBox;strokeColor=#999999;fillColor=#ddeeff;align=left;fillColor2=#aaddff;mainText=;fontColor=#666666;fontSize=17;spacingLeft=3;" parent="1" vertex="1">
          <mxGeometry x="-2167" y="1402" width="145" height="30" as="geometry" />
        </mxCell>
        <mxCell id="NTMEfr_3e5SVXF3FYlu_-261" value="" style="rounded=0;whiteSpace=wrap;html=1;" parent="1" vertex="1">
          <mxGeometry x="884" y="1067.5" width="593.5" height="277.5" as="geometry" />
        </mxCell>
        <mxCell id="NTMEfr_3e5SVXF3FYlu_-262" value="JanelaCriarSocio" style="text;html=1;align=center;verticalAlign=middle;whiteSpace=wrap;rounded=0;" parent="1" vertex="1">
          <mxGeometry x="882" y="1041.5" width="110" height="30" as="geometry" />
        </mxCell>
        <mxCell id="NTMEfr_3e5SVXF3FYlu_-263" value="Nome" style="text;html=1;align=right;verticalAlign=middle;whiteSpace=wrap;rounded=0;" parent="1" vertex="1">
          <mxGeometry x="940.5" y="1094.5" width="60" height="30" as="geometry" />
        </mxCell>
        <mxCell id="NTMEfr_3e5SVXF3FYlu_-264" value="" style="strokeWidth=1;shadow=0;dashed=0;align=center;html=1;shape=mxgraph.mockup.forms.comboBox;strokeColor=#999999;fillColor=#ddeeff;align=left;fillColor2=#aaddff;mainText=;fontColor=#666666;fontSize=17;spacingLeft=3;" parent="1" vertex="1">
          <mxGeometry x="1007" y="1094.5" width="443.5" height="30" as="geometry" />
        </mxCell>
        <mxCell id="NTMEfr_3e5SVXF3FYlu_-265" value="Guardar" style="rounded=1;whiteSpace=wrap;html=1;" parent="1" vertex="1">
          <mxGeometry x="1182.5" y="1289" width="128" height="35" as="geometry" />
        </mxCell>
        <mxCell id="NTMEfr_3e5SVXF3FYlu_-266" value="Voltar" style="rounded=1;whiteSpace=wrap;html=1;" parent="1" vertex="1">
          <mxGeometry x="1320.5" y="1289" width="128" height="35" as="geometry" />
        </mxCell>
        <mxCell id="NTMEfr_3e5SVXF3FYlu_-267" value="morada" style="text;html=1;align=right;verticalAlign=middle;whiteSpace=wrap;rounded=0;" parent="1" vertex="1">
          <mxGeometry x="940.5" y="1139" width="60" height="30" as="geometry" />
        </mxCell>
        <mxCell id="NTMEfr_3e5SVXF3FYlu_-268" value="" style="strokeWidth=1;shadow=0;dashed=0;align=center;html=1;shape=mxgraph.mockup.forms.comboBox;strokeColor=#999999;fillColor=#ddeeff;align=left;fillColor2=#aaddff;mainText=;fontColor=#666666;fontSize=17;spacingLeft=3;" parent="1" vertex="1">
          <mxGeometry x="1007" y="1139" width="443.5" height="30" as="geometry" />
        </mxCell>
        <mxCell id="NTMEfr_3e5SVXF3FYlu_-271" value="email" style="text;html=1;align=right;verticalAlign=middle;whiteSpace=wrap;rounded=0;" parent="1" vertex="1">
          <mxGeometry x="938.5" y="1187" width="60" height="30" as="geometry" />
        </mxCell>
        <mxCell id="NTMEfr_3e5SVXF3FYlu_-272" value="" style="strokeWidth=1;shadow=0;dashed=0;align=center;html=1;shape=mxgraph.mockup.forms.comboBox;strokeColor=#999999;fillColor=#ddeeff;align=left;fillColor2=#aaddff;mainText=;fontColor=#666666;fontSize=17;spacingLeft=3;" parent="1" vertex="1">
          <mxGeometry x="1005" y="1187" width="443.5" height="30" as="geometry" />
        </mxCell>
        <mxCell id="NTMEfr_3e5SVXF3FYlu_-273" value="NIF / CC" style="text;html=1;align=right;verticalAlign=middle;whiteSpace=wrap;rounded=0;" parent="1" vertex="1">
          <mxGeometry x="938.5" y="1235" width="60" height="30" as="geometry" />
        </mxCell>
        <mxCell id="NTMEfr_3e5SVXF3FYlu_-274" value="" style="strokeWidth=1;shadow=0;dashed=0;align=center;html=1;shape=mxgraph.mockup.forms.comboBox;strokeColor=#999999;fillColor=#ddeeff;align=left;fillColor2=#aaddff;mainText=;fontColor=#666666;fontSize=17;spacingLeft=3;" parent="1" vertex="1">
          <mxGeometry x="1005" y="1235" width="168" height="30" as="geometry" />
        </mxCell>
        <mxCell id="NTMEfr_3e5SVXF3FYlu_-275" value="Telefone" style="text;html=1;align=right;verticalAlign=middle;whiteSpace=wrap;rounded=0;" parent="1" vertex="1">
          <mxGeometry x="1183.5" y="1235" width="87.5" height="30" as="geometry" />
        </mxCell>
        <mxCell id="NTMEfr_3e5SVXF3FYlu_-276" value="" style="strokeWidth=1;shadow=0;dashed=0;align=center;html=1;shape=mxgraph.mockup.forms.comboBox;strokeColor=#999999;fillColor=#ddeeff;align=left;fillColor2=#aaddff;mainText=;fontColor=#666666;fontSize=17;spacingLeft=3;" parent="1" vertex="1">
          <mxGeometry x="1277.5" y="1235" width="171" height="30" as="geometry" />
        </mxCell>
        <mxCell id="NTMEfr_3e5SVXF3FYlu_-292" value="JanelaReservas" style="text;html=1;align=center;verticalAlign=middle;whiteSpace=wrap;rounded=0;" parent="1" vertex="1">
          <mxGeometry x="-902" y="673" width="110" height="30" as="geometry" />
        </mxCell>
        <mxCell id="NTMEfr_3e5SVXF3FYlu_-293" value="Reservas" style="rounded=1;whiteSpace=wrap;html=1;" parent="1" vertex="1">
          <mxGeometry x="-1254" y="1087" width="120" height="60" as="geometry" />
        </mxCell>
        <mxCell id="NTMEfr_3e5SVXF3FYlu_-294" value="Pagamentos" style="rounded=1;whiteSpace=wrap;html=1;" parent="1" vertex="1">
          <mxGeometry x="-1254" y="1167" width="120" height="60" as="geometry" />
        </mxCell>
        <mxCell id="NTMEfr_3e5SVXF3FYlu_-296" value="Voltar" style="rounded=1;whiteSpace=wrap;html=1;" parent="1" vertex="1">
          <mxGeometry x="231" y="750.5" width="128" height="35" as="geometry" />
        </mxCell>
        <mxCell id="NTMEfr_3e5SVXF3FYlu_-299" value="JanelaPagamentos" style="text;html=1;align=center;verticalAlign=middle;whiteSpace=wrap;rounded=0;" parent="1" vertex="1">
          <mxGeometry x="-216" y="673" width="110" height="30" as="geometry" />
        </mxCell>
        <mxCell id="PDVYzoY3RleATE-HyURN-8" value="" style="rounded=0;whiteSpace=wrap;html=1;" vertex="1" parent="1">
          <mxGeometry x="-1598" y="709" width="593.5" height="134" as="geometry" />
        </mxCell>
        <mxCell id="PDVYzoY3RleATE-HyURN-9" value="JanelaAnularReserva" style="text;html=1;align=center;verticalAlign=middle;whiteSpace=wrap;rounded=0;" vertex="1" parent="1">
          <mxGeometry x="-1576.5" y="679" width="110" height="30" as="geometry" />
        </mxCell>
        <mxCell id="PDVYzoY3RleATE-HyURN-10" value="Cod Reserva" style="text;html=1;align=right;verticalAlign=middle;whiteSpace=wrap;rounded=0;" vertex="1" parent="1">
          <mxGeometry x="-1585" y="731" width="100.5" height="30" as="geometry" />
        </mxCell>
        <mxCell id="PDVYzoY3RleATE-HyURN-11" value="" style="strokeWidth=1;shadow=0;dashed=0;align=center;html=1;shape=mxgraph.mockup.forms.comboBox;strokeColor=#999999;fillColor=#ddeeff;align=left;fillColor2=#aaddff;mainText=;fontColor=#666666;fontSize=17;spacingLeft=3;" vertex="1" parent="1">
          <mxGeometry x="-1477.5" y="731" width="446" height="30" as="geometry" />
        </mxCell>
        <mxCell id="PDVYzoY3RleATE-HyURN-12" value="Submeter" style="rounded=1;whiteSpace=wrap;html=1;" vertex="1" parent="1">
          <mxGeometry x="-1300.5" y="789" width="128" height="35" as="geometry" />
        </mxCell>
        <mxCell id="PDVYzoY3RleATE-HyURN-13" value="Voltar" style="rounded=1;whiteSpace=wrap;html=1;" vertex="1" parent="1">
          <mxGeometry x="-1162.5" y="789" width="128" height="35" as="geometry" />
        </mxCell>
        <mxCell id="PDVYzoY3RleATE-HyURN-16" value="" style="rounded=0;whiteSpace=wrap;html=1;" vertex="1" parent="1">
          <mxGeometry x="531" y="692" width="593.5" height="195" as="geometry" />
        </mxCell>
        <mxCell id="PDVYzoY3RleATE-HyURN-17" value="JanelaPagar" style="text;html=1;align=center;verticalAlign=middle;whiteSpace=wrap;rounded=0;" vertex="1" parent="1">
          <mxGeometry x="538" y="662" width="110" height="30" as="geometry" />
        </mxCell>
        <mxCell id="PDVYzoY3RleATE-HyURN-18" value="Nr de Socio" style="text;html=1;align=right;verticalAlign=middle;whiteSpace=wrap;rounded=0;" vertex="1" parent="1">
          <mxGeometry x="544" y="714" width="100.5" height="30" as="geometry" />
        </mxCell>
        <mxCell id="PDVYzoY3RleATE-HyURN-19" value="" style="strokeWidth=1;shadow=0;dashed=0;align=center;html=1;shape=mxgraph.mockup.forms.comboBox;strokeColor=#999999;fillColor=#ddeeff;align=left;fillColor2=#aaddff;mainText=;fontColor=#666666;fontSize=17;spacingLeft=3;" vertex="1" parent="1">
          <mxGeometry x="651.5" y="714" width="446" height="30" as="geometry" />
        </mxCell>
        <mxCell id="PDVYzoY3RleATE-HyURN-20" value="Submeter" style="rounded=1;whiteSpace=wrap;html=1;" vertex="1" parent="1">
          <mxGeometry x="825" y="831" width="128" height="35" as="geometry" />
        </mxCell>
        <mxCell id="PDVYzoY3RleATE-HyURN-21" value="Voltar" style="rounded=1;whiteSpace=wrap;html=1;" vertex="1" parent="1">
          <mxGeometry x="969.5" y="831" width="128" height="35" as="geometry" />
        </mxCell>
        <mxCell id="PDVYzoY3RleATE-HyURN-24" value="Valor" style="text;html=1;align=right;verticalAlign=middle;whiteSpace=wrap;rounded=0;" vertex="1" parent="1">
          <mxGeometry x="544" y="761" width="100.5" height="30" as="geometry" />
        </mxCell>
        <mxCell id="PDVYzoY3RleATE-HyURN-25" value="" style="strokeWidth=1;shadow=0;dashed=0;align=center;html=1;shape=mxgraph.mockup.forms.comboBox;strokeColor=#999999;fillColor=#ddeeff;align=left;fillColor2=#aaddff;mainText=;fontColor=#666666;fontSize=17;spacingLeft=3;" vertex="1" parent="1">
          <mxGeometry x="651.5" y="761" width="446" height="30" as="geometry" />
        </mxCell>
        <mxCell id="PDVYzoY3RleATE-HyURN-28" style="edgeStyle=orthogonalEdgeStyle;rounded=0;orthogonalLoop=1;jettySize=auto;html=1;exitX=0.5;exitY=1;exitDx=0;exitDy=0;entryX=0.452;entryY=0.995;entryDx=0;entryDy=0;entryPerimeter=0;" edge="1" parent="1" source="NTMEfr_3e5SVXF3FYlu_-136" target="PDVYzoY3RleATE-HyURN-16">
          <mxGeometry relative="1" as="geometry" />
        </mxCell>
      </root>
    </mxGraphModel>
  </diagram>
</mxfile>
